# xmcd
#
# Track frame offsets: 
#        150
#        1367
#        32400
#        62435
#        91404
#        117030
#        147872
#        181332
#        212090
#        233970
#        253684
#
# Disc length: 3702 seconds
#
# Revision: 2
# Processed by: cddbd v1.5.2PL0 Copyright (c) Steve Scherf et al.
# Submitted via: ExactAudioCopy v0.95a4
#
DISCID=8a0e740b
DTITLE=Rita Chiarelli - What a Night - Live!
DYEAR=1997
DGENRE=Blues
TTITLE0=Intro
TTITLE1=Love You Too Much
TTITLE2=Strange Behaviour
TTITLE3=Satisfied
TTITLE4=72nd Street
TTITLE5=The Night Time Is the Right Time
TTITLE6=Hound Dog
TTITLE7=Me and Bobby McGee
TTITLE8=Tupelo
TTITLE9=I'm Confessing
TTITLE10=How Blue Can You Get
EXTD=Year: 1997\n\n\n\n\n\n                                           
EXTD=      www.ritachiarelli.com
EXTT0=
EXTT1=
EXTT2=
EXTT3=
EXTT4=
EXTT5=
EXTT6=
EXTT7=
EXTT8=
EXTT9=
EXTT10=
PLAYORDER=
